# MagicaVoxel @ ephtracy

# material
mtllib humantemplatefeet(right).mtl
usemtl palette

# normals
vn -1 0 0
vn 1 0 0
vn 0 0 1
vn 0 0 -1
vn 0 -1 0
vn 0 1 0

# texcoords
vt 0.966797 0.5
vt 0.990234 0.5

# verts
v -6 0 2
v -6 0 -4
v -6 1 2
v -6 1 -4
v -6 2 2
v -6 2 1
v -6 2 -3
v -6 2 -4
v -6 3 1
v -6 3 -3
v -5 0 3
v -5 0 2
v -5 0 -4
v -5 0 -5
v -5 1 3
v -5 1 2
v -5 1 -4
v -5 1 -5
v -5 2 3
v -5 2 2
v -5 2 1
v -5 2 -3
v -5 2 -4
v -5 2 -5
v -5 3 2
v -5 3 1
v -5 3 -3
v -5 3 -4
v -3 1 -3
v -3 1 -4
v -3 2 -3
v -3 2 -4
v -2 1 1
v -2 1 -3
v -2 2 1
v -2 2 -3
v -5 1 1
v -5 1 -4
v -5 2 1
v -5 2 -4
v -2 0 3
v -2 0 2
v -2 0 -4
v -2 0 -5
v -2 1 3
v -2 1 2
v -2 1 -4
v -2 1 -5
v -2 2 3
v -2 2 2
v -2 2 1
v -2 2 -3
v -2 2 -4
v -2 2 -5
v -2 3 2
v -2 3 1
v -2 3 -3
v -2 3 -4
v -1 0 2
v -1 0 -4
v -1 1 2
v -1 1 -4
v -1 2 2
v -1 2 1
v -1 2 -3
v -1 2 -4
v -1 3 1
v -1 3 -3
v -5 0 3
v -5 1 3
v -5 2 3
v -2 0 3
v -2 1 3
v -2 2 3
v -6 0 2
v -6 1 2
v -6 2 2
v -5 0 2
v -5 1 2
v -5 2 2
v -5 3 2
v -2 0 2
v -2 1 2
v -2 2 2
v -2 3 2
v -1 0 2
v -1 1 2
v -1 2 2
v -6 2 1
v -6 3 1
v -5 2 1
v -5 3 1
v -2 2 1
v -2 3 1
v -1 2 1
v -1 3 1
v -3 1 -3
v -3 2 -3
v -2 1 -3
v -2 2 -3
v -5 1 -4
v -5 2 -4
v -3 1 -4
v -3 2 -4
v -5 1 1
v -5 2 1
v -2 1 1
v -2 2 1
v -6 2 -3
v -6 3 -3
v -5 2 -3
v -5 3 -3
v -2 2 -3
v -2 3 -3
v -1 2 -3
v -1 3 -3
v -6 0 -4
v -6 1 -4
v -6 2 -4
v -5 0 -4
v -5 1 -4
v -5 2 -4
v -5 3 -4
v -2 0 -4
v -2 1 -4
v -2 2 -4
v -2 3 -4
v -1 0 -4
v -1 1 -4
v -1 2 -4
v -5 0 -5
v -5 1 -5
v -5 2 -5
v -2 0 -5
v -2 1 -5
v -2 2 -5
v -5 0 3
v -2 0 3
v -6 0 2
v -5 0 2
v -2 0 2
v -1 0 2
v -6 0 -4
v -5 0 -4
v -2 0 -4
v -1 0 -4
v -5 0 -5
v -2 0 -5
v -5 2 1
v -2 2 1
v -3 2 -3
v -2 2 -3
v -5 2 -4
v -3 2 -4
v -5 1 1
v -2 1 1
v -3 1 -3
v -2 1 -3
v -5 1 -4
v -3 1 -4
v -5 2 3
v -2 2 3
v -6 2 2
v -5 2 2
v -2 2 2
v -1 2 2
v -6 2 1
v -5 2 1
v -2 2 1
v -1 2 1
v -6 2 -3
v -5 2 -3
v -2 2 -3
v -1 2 -3
v -6 2 -4
v -5 2 -4
v -2 2 -4
v -1 2 -4
v -5 2 -5
v -2 2 -5
v -5 3 2
v -2 3 2
v -6 3 1
v -5 3 1
v -2 3 1
v -1 3 1
v -6 3 -3
v -5 3 -3
v -2 3 -3
v -1 3 -3
v -5 3 -4
v -2 3 -4

# faces
f 3/1/1 2/1/1 1/1/1
f 4/1/1 2/1/1 3/1/1
f 5/2/1 4/2/1 3/2/1
f 6/2/1 4/2/1 5/2/1
f 7/2/1 4/2/1 6/2/1
f 8/2/1 4/2/1 7/2/1
f 9/2/1 7/2/1 6/2/1
f 10/2/1 7/2/1 9/2/1
f 15/1/1 12/1/1 11/1/1
f 16/1/1 12/1/1 15/1/1
f 17/1/1 14/1/1 13/1/1
f 18/1/1 14/1/1 17/1/1
f 19/2/1 16/2/1 15/2/1
f 20/2/1 16/2/1 19/2/1
f 23/2/1 18/2/1 17/2/1
f 24/2/1 18/2/1 23/2/1
f 25/2/1 21/2/1 20/2/1
f 26/2/1 21/2/1 25/2/1
f 27/2/1 23/2/1 22/2/1
f 28/2/1 23/2/1 27/2/1
f 31/2/1 30/2/1 29/2/1
f 32/2/1 30/2/1 31/2/1
f 35/2/1 34/2/1 33/2/1
f 36/2/1 34/2/1 35/2/1
f 37/2/2 38/2/2 39/2/2
f 39/2/2 38/2/2 40/2/2
f 41/1/2 42/1/2 45/1/2
f 45/1/2 42/1/2 46/1/2
f 43/1/2 44/1/2 47/1/2
f 47/1/2 44/1/2 48/1/2
f 45/2/2 46/2/2 49/2/2
f 49/2/2 46/2/2 50/2/2
f 47/2/2 48/2/2 53/2/2
f 53/2/2 48/2/2 54/2/2
f 50/2/2 51/2/2 55/2/2
f 55/2/2 51/2/2 56/2/2
f 52/2/2 53/2/2 57/2/2
f 57/2/2 53/2/2 58/2/2
f 59/1/2 60/1/2 61/1/2
f 61/1/2 60/1/2 62/1/2
f 61/2/2 62/2/2 63/2/2
f 63/2/2 62/2/2 64/2/2
f 64/2/2 62/2/2 65/2/2
f 65/2/2 62/2/2 66/2/2
f 64/2/2 65/2/2 67/2/2
f 67/2/2 65/2/2 68/2/2
f 72/1/3 70/1/3 69/1/3
f 73/2/3 71/2/3 70/2/3
f 73/1/3 70/1/3 72/1/3
f 74/2/3 71/2/3 73/2/3
f 78/1/3 76/1/3 75/1/3
f 79/2/3 77/2/3 76/2/3
f 79/1/3 76/1/3 78/1/3
f 80/2/3 77/2/3 79/2/3
f 84/2/3 81/2/3 80/2/3
f 85/2/3 81/2/3 84/2/3
f 86/1/3 83/1/3 82/1/3
f 87/2/3 84/2/3 83/2/3
f 87/1/3 83/1/3 86/1/3
f 88/2/3 84/2/3 87/2/3
f 91/2/3 90/2/3 89/2/3
f 92/2/3 90/2/3 91/2/3
f 95/2/3 94/2/3 93/2/3
f 96/2/3 94/2/3 95/2/3
f 99/2/3 98/2/3 97/2/3
f 100/2/3 98/2/3 99/2/3
f 103/2/3 102/2/3 101/2/3
f 104/2/3 102/2/3 103/2/3
f 105/2/4 106/2/4 107/2/4
f 107/2/4 106/2/4 108/2/4
f 109/2/4 110/2/4 111/2/4
f 111/2/4 110/2/4 112/2/4
f 113/2/4 114/2/4 115/2/4
f 115/2/4 114/2/4 116/2/4
f 117/1/4 118/1/4 120/1/4
f 118/2/4 119/2/4 121/2/4
f 120/1/4 118/1/4 121/1/4
f 121/2/4 119/2/4 122/2/4
f 122/2/4 123/2/4 126/2/4
f 126/2/4 123/2/4 127/2/4
f 124/1/4 125/1/4 128/1/4
f 125/2/4 126/2/4 129/2/4
f 128/1/4 125/1/4 129/1/4
f 129/2/4 126/2/4 130/2/4
f 131/1/4 132/1/4 134/1/4
f 132/2/4 133/2/4 135/2/4
f 134/1/4 132/1/4 135/1/4
f 135/2/4 133/2/4 136/2/4
f 140/1/5 138/1/5 137/1/5
f 141/1/5 138/1/5 140/1/5
f 143/1/5 140/1/5 139/1/5
f 143/1/5 142/1/5 141/1/5
f 143/1/5 141/1/5 140/1/5
f 144/1/5 142/1/5 143/1/5
f 145/1/5 142/1/5 144/1/5
f 146/1/5 142/1/5 145/1/5
f 147/1/5 145/1/5 144/1/5
f 148/1/5 145/1/5 147/1/5
f 151/2/5 150/2/5 149/2/5
f 152/2/5 150/2/5 151/2/5
f 153/2/5 151/2/5 149/2/5
f 154/2/5 151/2/5 153/2/5
f 155/1/6 156/1/6 157/1/6
f 157/1/6 156/1/6 158/1/6
f 155/1/6 157/1/6 159/1/6
f 159/1/6 157/1/6 160/1/6
f 161/2/6 162/2/6 164/2/6
f 164/2/6 162/2/6 165/2/6
f 163/2/6 164/2/6 167/2/6
f 167/2/6 164/2/6 168/2/6
f 165/2/6 166/2/6 169/2/6
f 169/2/6 166/2/6 170/2/6
f 171/2/6 172/2/6 175/2/6
f 175/2/6 172/2/6 176/2/6
f 173/2/6 174/2/6 177/2/6
f 177/2/6 174/2/6 178/2/6
f 176/2/6 177/2/6 179/2/6
f 179/2/6 177/2/6 180/2/6
f 181/2/6 182/2/6 184/2/6
f 184/2/6 182/2/6 185/2/6
f 183/2/6 184/2/6 187/2/6
f 185/2/6 186/2/6 187/2/6
f 184/2/6 185/2/6 187/2/6
f 187/2/6 186/2/6 188/2/6
f 188/2/6 186/2/6 189/2/6
f 189/2/6 186/2/6 190/2/6
f 188/2/6 189/2/6 191/2/6
f 191/2/6 189/2/6 192/2/6
