# MagicaVoxel @ ephtracy

# material
mtllib humantemplatebody.mtl
usemtl palette

# normals
vn -1 0 0
vn 1 0 0
vn 0 0 1
vn 0 0 -1
vn 0 -1 0
vn 0 1 0

# texcoords
vt 0.341797 0.5
vt 0.541016 0.5
vt 0.556641 0.5
vt 0.560547 0.5
vt 0.806641 0.5
vt 0.810547 0.5
vt 0.919922 0.5
vt 0.923828 0.5
vt 0.927734 0.5
vt 0.931641 0.5
vt 0.955078 0.5
vt 0.966797 0.5

# verts
v -5 4 1
v -5 4 -3
v -5 7 1
v -5 7 -3
v -5 8 1
v -5 8 -3
v -5 10 1
v -5 10 -3
v -5 11 1
v -5 11 -3
v -5 12 1
v -5 12 -0
v -5 12 -2
v -5 12 -3
v -5 13 -0
v -5 13 -2
v -4 4 2
v -4 4 1
v -4 4 -3
v -4 4 -4
v -4 7 2
v -4 7 1
v -4 7 -3
v -4 7 -4
v -4 8 2
v -4 8 1
v -4 8 -3
v -4 8 -4
v -4 9 1
v -4 9 -3
v -4 10 2
v -4 10 1
v -4 10 -3
v -4 10 -4
v -4 11 2
v -4 11 1
v -4 11 -3
v -4 11 -4
v -4 12 1
v -4 12 -0
v -4 12 -2
v -4 12 -3
v -4 13 2
v -4 13 -0
v -4 13 -2
v -4 13 -4
v -3 4 -4
v -3 4 -5
v -3 7 -4
v -3 7 -5
v -3 8 2
v -3 8 1
v -3 8 -3
v -3 8 -4
v -3 9 2
v -3 9 1
v -3 9 -3
v -3 9 -4
v -3 10 2
v -3 10 1
v -3 10 -3
v -3 10 -4
v -2 7 -4
v -2 7 -5
v -2 8 3
v -2 8 2
v -2 8 -4
v -2 8 -5
v -2 9 3
v -2 9 2
v -2 10 3
v -2 10 2
v -2 10 -4
v -2 10 -5
v -2 11 -4
v -2 11 -5
v -2 13 -4
v -2 13 -5
v 1 11 2
v 1 11 1
v 1 12 2
v 1 12 1
v 2 12 2
v 2 12 1
v 2 13 2
v 2 13 1
v -2 12 2
v -2 12 1
v -2 13 2
v -2 13 1
v -1 11 2
v -1 11 1
v -1 12 2
v -1 12 1
v 2 7 -4
v 2 7 -5
v 2 8 3
v 2 8 2
v 2 8 -4
v 2 8 -5
v 2 9 3
v 2 9 2
v 2 10 3
v 2 10 2
v 2 10 -4
v 2 10 -5
v 2 11 -4
v 2 11 -5
v 2 13 -4
v 2 13 -5
v 3 4 -4
v 3 4 -5
v 3 7 -4
v 3 7 -5
v 3 8 2
v 3 8 1
v 3 8 -3
v 3 8 -4
v 3 9 2
v 3 9 1
v 3 9 -3
v 3 9 -4
v 3 10 2
v 3 10 1
v 3 10 -3
v 3 10 -4
v 4 4 2
v 4 4 1
v 4 4 -3
v 4 4 -4
v 4 7 2
v 4 7 1
v 4 7 -3
v 4 7 -4
v 4 8 2
v 4 8 1
v 4 8 -3
v 4 8 -4
v 4 9 1
v 4 9 -3
v 4 10 2
v 4 10 1
v 4 10 -3
v 4 10 -4
v 4 11 2
v 4 11 1
v 4 11 -3
v 4 11 -4
v 4 12 1
v 4 12 -0
v 4 12 -2
v 4 12 -3
v 4 13 2
v 4 13 -0
v 4 13 -2
v 4 13 -4
v 5 4 1
v 5 4 -3
v 5 7 1
v 5 7 -3
v 5 8 1
v 5 8 -3
v 5 10 1
v 5 10 -3
v 5 11 1
v 5 11 -3
v 5 12 1
v 5 12 -0
v 5 12 -2
v 5 12 -3
v 5 13 -0
v 5 13 -2
v -2 8 3
v -2 9 3
v -2 10 3
v -1 8 3
v -1 9 3
v -1 10 3
v 0 8 3
v 0 9 3
v 0 10 3
v 1 8 3
v 1 9 3
v 1 10 3
v 2 8 3
v 2 9 3
v 2 10 3
v -4 4 2
v -4 7 2
v -4 8 2
v -4 10 2
v -4 11 2
v -4 13 2
v -3 8 2
v -3 9 2
v -3 10 2
v -2 8 2
v -2 9 2
v -2 10 2
v -2 12 2
v -2 13 2
v -1 8 2
v -1 10 2
v -1 11 2
v -1 12 2
v 0 8 2
v 0 10 2
v 1 8 2
v 1 10 2
v 1 11 2
v 1 12 2
v 2 8 2
v 2 9 2
v 2 10 2
v 2 12 2
v 2 13 2
v 3 8 2
v 3 9 2
v 3 10 2
v 4 4 2
v 4 7 2
v 4 8 2
v 4 10 2
v 4 11 2
v 4 13 2
v -5 4 1
v -5 7 1
v -5 8 1
v -5 10 1
v -5 11 1
v -5 12 1
v -4 4 1
v -4 7 1
v -4 8 1
v -4 9 1
v -4 10 1
v -4 11 1
v -4 12 1
v -3 8 1
v -3 9 1
v -3 10 1
v -2 12 1
v -2 13 1
v -1 11 1
v -1 12 1
v -1 13 1
v 0 11 1
v 0 12 1
v 0 13 1
v 1 11 1
v 1 12 1
v 1 13 1
v 2 12 1
v 2 13 1
v 3 8 1
v 3 9 1
v 3 10 1
v 4 4 1
v 4 7 1
v 4 8 1
v 4 9 1
v 4 10 1
v 4 11 1
v 4 12 1
v 5 4 1
v 5 7 1
v 5 8 1
v 5 10 1
v 5 11 1
v 5 12 1
v -5 12 -0
v -5 13 -0
v -4 12 -0
v -4 13 -0
v 4 12 -0
v 4 13 -0
v 5 12 -0
v 5 13 -0
v -5 12 -2
v -5 13 -2
v -4 12 -2
v -4 13 -2
v 4 12 -2
v 4 13 -2
v 5 12 -2
v 5 13 -2
v -5 4 -3
v -5 7 -3
v -5 8 -3
v -5 10 -3
v -5 11 -3
v -5 12 -3
v -4 4 -3
v -4 7 -3
v -4 8 -3
v -4 9 -3
v -4 10 -3
v -4 11 -3
v -4 12 -3
v -3 8 -3
v -3 9 -3
v -3 10 -3
v 3 8 -3
v 3 9 -3
v 3 10 -3
v 4 4 -3
v 4 7 -3
v 4 8 -3
v 4 9 -3
v 4 10 -3
v 4 11 -3
v 4 12 -3
v 5 4 -3
v 5 7 -3
v 5 8 -3
v 5 10 -3
v 5 11 -3
v 5 12 -3
v -4 4 -4
v -4 7 -4
v -4 8 -4
v -4 10 -4
v -4 11 -4
v -4 13 -4
v -3 4 -4
v -3 7 -4
v -3 8 -4
v -3 9 -4
v -3 10 -4
v -2 7 -4
v -2 8 -4
v -2 10 -4
v -2 11 -4
v -2 13 -4
v 2 7 -4
v 2 8 -4
v 2 10 -4
v 2 11 -4
v 2 13 -4
v 3 4 -4
v 3 7 -4
v 3 8 -4
v 3 9 -4
v 3 10 -4
v 4 4 -4
v 4 7 -4
v 4 8 -4
v 4 10 -4
v 4 11 -4
v 4 13 -4
v -3 4 -5
v -3 7 -5
v -2 7 -5
v -2 8 -5
v -2 10 -5
v -2 11 -5
v -2 13 -5
v 2 7 -5
v 2 8 -5
v 2 10 -5
v 2 11 -5
v 2 13 -5
v 3 4 -5
v 3 7 -5
v -4 4 2
v 4 4 2
v -5 4 1
v -4 4 1
v 4 4 1
v 5 4 1
v -5 4 -3
v -4 4 -3
v 4 4 -3
v 5 4 -3
v -4 4 -4
v -3 4 -4
v 3 4 -4
v 4 4 -4
v -3 4 -5
v 3 4 -5
v -2 8 3
v -1 8 3
v 0 8 3
v 1 8 3
v 2 8 3
v -2 8 2
v -1 8 2
v 0 8 2
v 1 8 2
v 2 8 2
v -4 10 2
v -3 10 2
v 3 10 2
v 4 10 2
v -5 10 1
v -4 10 1
v -3 10 1
v 3 10 1
v 4 10 1
v 5 10 1
v -5 10 -3
v -4 10 -3
v -3 10 -3
v 3 10 -3
v 4 10 -3
v 5 10 -3
v -4 10 -4
v -3 10 -4
v -2 10 -4
v 2 10 -4
v 3 10 -4
v 4 10 -4
v -2 10 -5
v 2 10 -5
v -3 7 -4
v -2 7 -4
v 2 7 -4
v 3 7 -4
v -3 7 -5
v -2 7 -5
v 2 7 -5
v 3 7 -5
v -4 8 2
v -3 8 2
v 3 8 2
v 4 8 2
v -5 8 1
v -4 8 1
v -3 8 1
v 3 8 1
v 4 8 1
v 5 8 1
v -5 8 -3
v -4 8 -3
v -3 8 -3
v 3 8 -3
v 4 8 -3
v 5 8 -3
v -4 8 -4
v -3 8 -4
v -2 8 -4
v 2 8 -4
v 3 8 -4
v 4 8 -4
v -2 8 -5
v 2 8 -5
v -2 10 3
v -1 10 3
v 0 10 3
v 1 10 3
v 2 10 3
v -2 10 2
v -1 10 2
v 0 10 2
v 1 10 2
v 2 10 2
v -1 11 2
v 1 11 2
v -1 11 1
v 0 11 1
v 1 11 1
v -2 12 2
v -1 12 2
v 1 12 2
v 2 12 2
v -5 12 1
v -4 12 1
v -2 12 1
v -1 12 1
v 1 12 1
v 2 12 1
v 4 12 1
v 5 12 1
v -5 12 -0
v -4 12 -0
v 4 12 -0
v 5 12 -0
v -5 12 -2
v -4 12 -2
v 4 12 -2
v 5 12 -2
v -5 12 -3
v -4 12 -3
v 4 12 -3
v 5 12 -3
v -4 13 2
v -2 13 2
v 2 13 2
v 4 13 2
v -2 13 1
v -1 13 1
v 0 13 1
v 1 13 1
v 2 13 1
v -5 13 -0
v -4 13 -0
v -2 13 -0
v -1 13 -0
v 0 13 -0
v 1 13 -0
v 2 13 -0
v 4 13 -0
v 5 13 -0
v -5 13 -2
v -4 13 -2
v 4 13 -2
v 5 13 -2
v -4 13 -4
v -2 13 -4
v 2 13 -4
v 4 13 -4
v -2 13 -5
v 2 13 -5

# faces
f 3/6/1 2/6/1 1/6/1
f 4/6/1 2/6/1 3/6/1
f 5/5/1 4/5/1 3/5/1
f 6/5/1 4/5/1 5/5/1
f 9/5/1 8/5/1 7/5/1
f 10/5/1 8/5/1 9/5/1
f 11/6/1 10/6/1 9/6/1
f 12/6/1 10/6/1 11/6/1
f 13/6/1 10/6/1 12/6/1
f 14/6/1 10/6/1 13/6/1
f 15/6/1 13/6/1 12/6/1
f 16/6/1 13/6/1 15/6/1
f 21/6/1 18/6/1 17/6/1
f 22/6/1 18/6/1 21/6/1
f 23/6/1 20/6/1 19/6/1
f 24/6/1 20/6/1 23/6/1
f 25/5/1 22/5/1 21/5/1
f 26/5/1 22/5/1 25/5/1
f 27/5/1 24/5/1 23/5/1
f 28/5/1 24/5/1 27/5/1
f 29/11/1 27/11/1 26/11/1
f 30/11/1 27/11/1 29/11/1
f 32/1/1 30/1/1 29/1/1
f 33/1/1 30/1/1 32/1/1
f 35/5/1 32/5/1 31/5/1
f 36/5/1 32/5/1 35/5/1
f 37/5/1 34/5/1 33/5/1
f 38/5/1 34/5/1 37/5/1
f 39/6/1 36/6/1 35/6/1
f 42/6/1 38/6/1 37/6/1
f 43/6/1 40/6/1 39/6/1
f 43/6/1 39/6/1 35/6/1
f 44/6/1 40/6/1 43/6/1
f 45/6/1 42/6/1 41/6/1
f 46/6/1 38/6/1 42/6/1
f 46/6/1 42/6/1 45/6/1
f 49/6/1 48/6/1 47/6/1
f 50/6/1 48/6/1 49/6/1
f 55/11/1 52/11/1 51/11/1
f 56/11/1 52/11/1 55/11/1
f 57/11/1 54/11/1 53/11/1
f 58/11/1 54/11/1 57/11/1
f 59/1/1 56/1/1 55/1/1
f 60/1/1 56/1/1 59/1/1
f 61/1/1 58/1/1 57/1/1
f 62/1/1 58/1/1 61/1/1
f 67/5/1 64/5/1 63/5/1
f 68/5/1 64/5/1 67/5/1
f 69/9/1 66/9/1 65/9/1
f 70/9/1 66/9/1 69/9/1
f 71/10/1 70/10/1 69/10/1
f 72/10/1 70/10/1 71/10/1
f 75/5/1 74/5/1 73/5/1
f 76/5/1 74/5/1 75/5/1
f 77/6/1 76/6/1 75/6/1
f 78/6/1 76/6/1 77/6/1
f 81/6/1 80/6/1 79/6/1
f 82/6/1 80/6/1 81/6/1
f 85/6/1 84/6/1 83/6/1
f 86/6/1 84/6/1 85/6/1
f 87/6/2 88/6/2 89/6/2
f 89/6/2 88/6/2 90/6/2
f 91/6/2 92/6/2 93/6/2
f 93/6/2 92/6/2 94/6/2
f 95/5/2 96/5/2 99/5/2
f 99/5/2 96/5/2 100/5/2
f 97/12/2 98/12/2 101/12/2
f 101/12/2 98/12/2 102/12/2
f 101/7/2 102/7/2 103/7/2
f 103/7/2 102/7/2 104/7/2
f 105/5/2 106/5/2 107/5/2
f 107/5/2 106/5/2 108/5/2
f 107/6/2 108/6/2 109/6/2
f 109/6/2 108/6/2 110/6/2
f 111/6/2 112/6/2 113/6/2
f 113/6/2 112/6/2 114/6/2
f 115/11/2 116/11/2 119/11/2
f 119/11/2 116/11/2 120/11/2
f 117/11/2 118/11/2 121/11/2
f 121/11/2 118/11/2 122/11/2
f 119/1/2 120/1/2 123/1/2
f 123/1/2 120/1/2 124/1/2
f 121/1/2 122/1/2 125/1/2
f 125/1/2 122/1/2 126/1/2
f 127/6/2 128/6/2 131/6/2
f 131/6/2 128/6/2 132/6/2
f 129/6/2 130/6/2 133/6/2
f 133/6/2 130/6/2 134/6/2
f 131/5/2 132/5/2 135/5/2
f 135/5/2 132/5/2 136/5/2
f 133/5/2 134/5/2 137/5/2
f 137/5/2 134/5/2 138/5/2
f 136/11/2 137/11/2 139/11/2
f 139/11/2 137/11/2 140/11/2
f 139/1/2 140/1/2 142/1/2
f 142/1/2 140/1/2 143/1/2
f 141/5/2 142/5/2 145/5/2
f 145/5/2 142/5/2 146/5/2
f 143/5/2 144/5/2 147/5/2
f 147/5/2 144/5/2 148/5/2
f 145/6/2 146/6/2 149/6/2
f 147/6/2 148/6/2 152/6/2
f 149/6/2 150/6/2 153/6/2
f 145/6/2 149/6/2 153/6/2
f 153/6/2 150/6/2 154/6/2
f 151/6/2 152/6/2 155/6/2
f 152/6/2 148/6/2 156/6/2
f 155/6/2 152/6/2 156/6/2
f 157/6/2 158/6/2 159/6/2
f 159/6/2 158/6/2 160/6/2
f 159/5/2 160/5/2 161/5/2
f 161/5/2 160/5/2 162/5/2
f 163/5/2 164/5/2 165/5/2
f 165/5/2 164/5/2 166/5/2
f 165/6/2 166/6/2 167/6/2
f 167/6/2 166/6/2 168/6/2
f 168/6/2 166/6/2 169/6/2
f 169/6/2 166/6/2 170/6/2
f 168/6/2 169/6/2 171/6/2
f 171/6/2 169/6/2 172/6/2
f 176/9/3 174/9/3 173/9/3
f 177/10/3 175/10/3 174/10/3
f 177/9/3 174/9/3 176/9/3
f 178/10/3 175/10/3 177/10/3
f 179/8/3 177/8/3 176/8/3
f 180/9/3 178/9/3 177/9/3
f 180/8/3 177/8/3 179/8/3
f 181/9/3 178/9/3 180/9/3
f 182/7/3 180/7/3 179/7/3
f 183/8/3 181/8/3 180/8/3
f 183/7/3 180/7/3 182/7/3
f 184/8/3 181/8/3 183/8/3
f 185/12/3 183/12/3 182/12/3
f 186/7/3 184/7/3 183/7/3
f 186/12/3 183/12/3 185/12/3
f 187/7/3 184/7/3 186/7/3
f 194/5/3 190/5/3 189/5/3
f 196/5/3 192/5/3 191/5/3
f 197/11/3 195/11/3 194/11/3
f 197/5/3 194/5/3 189/5/3
f 198/1/3 196/1/3 195/1/3
f 198/11/3 195/11/3 197/11/3
f 199/5/3 192/5/3 196/5/3
f 199/1/3 196/1/3 198/1/3
f 200/6/3 193/6/3 192/6/3
f 201/6/3 193/6/3 200/6/3
f 202/5/3 197/5/3 189/5/3
f 203/5/3 192/5/3 199/5/3
f 204/6/3 200/6/3 192/6/3
f 204/5/3 192/5/3 203/5/3
f 205/6/3 200/6/3 204/6/3
f 206/5/3 202/5/3 189/5/3
f 207/5/3 204/5/3 203/5/3
f 208/5/3 206/5/3 189/5/3
f 209/5/3 204/5/3 207/5/3
f 210/5/3 204/5/3 209/5/3
f 212/5/3 208/5/3 189/5/3
f 214/5/3 210/5/3 209/5/3
f 215/6/3 211/6/3 210/6/3
f 217/11/3 213/11/3 212/11/3
f 217/5/3 212/5/3 189/5/3
f 218/1/3 214/1/3 213/1/3
f 218/11/3 213/11/3 217/11/3
f 219/5/3 210/5/3 214/5/3
f 219/1/3 214/1/3 218/1/3
f 220/6/3 189/6/3 188/6/3
f 221/5/3 217/5/3 189/5/3
f 221/6/3 189/6/3 220/6/3
f 222/5/3 217/5/3 221/5/3
f 223/5/3 210/5/3 219/5/3
f 224/6/3 215/6/3 210/6/3
f 224/5/3 210/5/3 223/5/3
f 224/6/3 216/6/3 215/6/3
f 225/6/3 216/6/3 224/6/3
f 232/6/3 227/6/3 226/6/3
f 233/5/3 228/5/3 227/5/3
f 233/6/3 227/6/3 232/6/3
f 234/5/3 228/5/3 233/5/3
f 236/5/3 230/5/3 229/5/3
f 237/6/3 231/6/3 230/6/3
f 237/5/3 230/5/3 236/5/3
f 238/6/3 231/6/3 237/6/3
f 239/11/3 235/11/3 234/11/3
f 240/1/3 236/1/3 235/1/3
f 240/11/3 235/11/3 239/11/3
f 241/1/3 236/1/3 240/1/3
f 245/3/3 243/3/3 242/3/3
f 246/3/3 243/3/3 245/3/3
f 247/3/3 245/3/3 244/3/3
f 248/2/3 246/2/3 245/2/3
f 248/3/3 245/3/3 247/3/3
f 249/2/3 246/2/3 248/2/3
f 250/2/3 248/2/3 247/2/3
f 251/4/3 249/4/3 248/4/3
f 251/2/3 248/2/3 250/2/3
f 252/4/3 249/4/3 251/4/3
f 253/2/3 252/2/3 251/2/3
f 254/2/3 252/2/3 253/2/3
f 260/11/3 256/11/3 255/11/3
f 261/1/3 257/1/3 256/1/3
f 261/11/3 256/11/3 260/11/3
f 262/1/3 257/1/3 261/1/3
f 265/6/3 259/6/3 258/6/3
f 266/5/3 260/5/3 259/5/3
f 266/6/3 259/6/3 265/6/3
f 267/5/3 260/5/3 266/5/3
f 268/5/3 263/5/3 262/5/3
f 269/6/3 264/6/3 263/6/3
f 269/5/3 263/5/3 268/5/3
f 270/6/3 264/6/3 269/6/3
f 273/6/3 272/6/3 271/6/3
f 274/6/3 272/6/3 273/6/3
f 277/6/3 276/6/3 275/6/3
f 278/6/3 276/6/3 277/6/3
f 279/6/4 280/6/4 281/6/4
f 281/6/4 280/6/4 282/6/4
f 283/6/4 284/6/4 285/6/4
f 285/6/4 284/6/4 286/6/4
f 287/6/4 288/6/4 293/6/4
f 288/5/4 289/5/4 294/5/4
f 293/6/4 288/6/4 294/6/4
f 294/5/4 289/5/4 295/5/4
f 290/5/4 291/5/4 297/5/4
f 291/6/4 292/6/4 298/6/4
f 297/5/4 291/5/4 298/5/4
f 298/6/4 292/6/4 299/6/4
f 295/11/4 296/11/4 300/11/4
f 296/1/4 297/1/4 301/1/4
f 300/11/4 296/11/4 301/11/4
f 301/1/4 297/1/4 302/1/4
f 303/11/4 304/11/4 308/11/4
f 304/1/4 305/1/4 309/1/4
f 308/11/4 304/11/4 309/11/4
f 309/1/4 305/1/4 310/1/4
f 306/6/4 307/6/4 313/6/4
f 307/5/4 308/5/4 314/5/4
f 313/6/4 307/6/4 314/6/4
f 314/5/4 308/5/4 315/5/4
f 310/5/4 311/5/4 316/5/4
f 311/6/4 312/6/4 317/6/4
f 316/5/4 311/5/4 317/5/4
f 317/6/4 312/6/4 318/6/4
f 319/6/4 320/6/4 325/6/4
f 320/5/4 321/5/4 326/5/4
f 325/6/4 320/6/4 326/6/4
f 326/5/4 321/5/4 327/5/4
f 322/5/4 323/5/4 329/5/4
f 326/5/4 327/5/4 330/5/4
f 327/11/4 328/11/4 331/11/4
f 330/5/4 327/5/4 331/5/4
f 328/1/4 329/1/4 332/1/4
f 329/5/4 323/5/4 332/5/4
f 323/6/4 324/6/4 333/6/4
f 332/5/4 323/5/4 333/5/4
f 333/6/4 324/6/4 334/6/4
f 331/11/4 328/11/4 336/11/4
f 328/1/4 332/1/4 337/1/4
f 335/5/4 336/5/4 341/5/4
f 336/11/4 328/11/4 342/11/4
f 341/5/4 336/5/4 342/5/4
f 328/1/4 337/1/4 343/1/4
f 342/11/4 328/11/4 343/11/4
f 337/5/4 338/5/4 344/5/4
f 343/1/4 337/1/4 344/1/4
f 340/6/4 341/6/4 345/6/4
f 341/5/4 342/5/4 346/5/4
f 345/6/4 341/6/4 346/6/4
f 346/5/4 342/5/4 347/5/4
f 344/5/4 338/5/4 348/5/4
f 338/6/4 339/6/4 349/6/4
f 348/5/4 338/5/4 349/5/4
f 349/6/4 339/6/4 350/6/4
f 351/6/4 352/6/4 353/6/4
f 351/6/4 353/6/4 358/6/4
f 353/5/4 354/5/4 358/5/4
f 358/5/4 354/5/4 359/5/4
f 355/5/4 356/5/4 360/5/4
f 356/6/4 357/6/4 361/6/4
f 360/5/4 356/5/4 361/5/4
f 361/6/4 357/6/4 362/6/4
f 351/6/4 358/6/4 363/6/4
f 363/6/4 358/6/4 364/6/4
f 368/6/5 366/6/5 365/6/5
f 369/6/5 366/6/5 368/6/5
f 371/6/5 368/6/5 367/6/5
f 371/6/5 370/6/5 369/6/5
f 371/6/5 369/6/5 368/6/5
f 372/6/5 370/6/5 371/6/5
f 373/6/5 370/6/5 372/6/5
f 374/6/5 370/6/5 373/6/5
f 375/6/5 373/6/5 372/6/5
f 376/6/5 373/6/5 375/6/5
f 377/6/5 373/6/5 376/6/5
f 378/6/5 373/6/5 377/6/5
f 379/6/5 377/6/5 376/6/5
f 380/6/5 377/6/5 379/6/5
f 386/9/5 382/9/5 381/9/5
f 387/8/5 383/8/5 382/8/5
f 387/9/5 382/9/5 386/9/5
f 388/7/5 384/7/5 383/7/5
f 388/8/5 383/8/5 387/8/5
f 389/12/5 385/12/5 384/12/5
f 389/7/5 384/7/5 388/7/5
f 390/12/5 385/12/5 389/12/5
f 396/5/5 392/5/5 391/5/5
f 397/5/5 392/5/5 396/5/5
f 398/5/5 394/5/5 393/5/5
f 399/5/5 394/5/5 398/5/5
f 401/5/5 396/5/5 395/5/5
f 402/5/5 396/5/5 401/5/5
f 405/5/5 400/5/5 399/5/5
f 406/5/5 400/5/5 405/5/5
f 407/5/5 403/5/5 402/5/5
f 408/5/5 403/5/5 407/5/5
f 411/5/5 405/5/5 404/5/5
f 412/5/5 405/5/5 411/5/5
f 413/5/5 410/5/5 409/5/5
f 414/5/5 410/5/5 413/5/5
f 415/6/6 416/6/6 419/6/6
f 419/6/6 416/6/6 420/6/6
f 417/6/6 418/6/6 421/6/6
f 421/6/6 418/6/6 422/6/6
f 423/5/6 424/5/6 428/5/6
f 428/5/6 424/5/6 429/5/6
f 425/5/6 426/5/6 430/5/6
f 430/5/6 426/5/6 431/5/6
f 427/5/6 428/5/6 433/5/6
f 433/5/6 428/5/6 434/5/6
f 431/5/6 432/5/6 437/5/6
f 437/5/6 432/5/6 438/5/6
f 434/5/6 435/5/6 439/5/6
f 439/5/6 435/5/6 440/5/6
f 436/5/6 437/5/6 443/5/6
f 443/5/6 437/5/6 444/5/6
f 441/5/6 442/5/6 445/5/6
f 445/5/6 442/5/6 446/5/6
f 447/10/6 448/10/6 452/10/6
f 448/9/6 449/9/6 453/9/6
f 452/10/6 448/10/6 453/10/6
f 449/8/6 450/8/6 454/8/6
f 453/9/6 449/9/6 454/9/6
f 450/7/6 451/7/6 455/7/6
f 454/8/6 450/8/6 455/8/6
f 455/7/6 451/7/6 456/7/6
f 457/5/6 458/5/6 459/5/6
f 459/5/6 458/5/6 460/5/6
f 460/5/6 458/5/6 461/5/6
f 462/6/6 463/6/6 468/6/6
f 468/6/6 463/6/6 469/6/6
f 464/6/6 465/6/6 470/6/6
f 470/6/6 465/6/6 471/6/6
f 466/6/6 467/6/6 474/6/6
f 474/6/6 467/6/6 475/6/6
f 472/6/6 473/6/6 476/6/6
f 476/6/6 473/6/6 477/6/6
f 478/6/6 479/6/6 482/6/6
f 482/6/6 479/6/6 483/6/6
f 480/6/6 481/6/6 484/6/6
f 484/6/6 481/6/6 485/6/6
f 486/6/6 487/6/6 490/6/6
f 488/6/6 489/6/6 494/6/6
f 486/6/6 490/6/6 496/6/6
f 490/3/6 491/3/6 497/3/6
f 496/6/6 490/6/6 497/6/6
f 491/2/6 492/2/6 498/2/6
f 497/3/6 491/3/6 498/3/6
f 492/4/6 493/4/6 499/4/6
f 498/2/6 492/2/6 499/2/6
f 493/2/6 494/2/6 500/2/6
f 499/4/6 493/4/6 500/4/6
f 494/6/6 489/6/6 501/6/6
f 500/2/6 494/2/6 501/2/6
f 501/6/6 489/6/6 502/6/6
f 497/6/6 498/6/6 504/6/6
f 502/6/6 503/6/6 504/6/6
f 501/6/6 502/6/6 504/6/6
f 500/6/6 501/6/6 504/6/6
f 498/6/6 499/6/6 504/6/6
f 499/6/6 500/6/6 504/6/6
f 495/6/6 496/6/6 504/6/6
f 496/6/6 497/6/6 504/6/6
f 504/6/6 503/6/6 505/6/6
f 505/6/6 503/6/6 506/6/6
f 506/6/6 503/6/6 507/6/6
f 505/6/6 506/6/6 508/6/6
f 508/6/6 506/6/6 509/6/6
f 509/6/6 506/6/6 510/6/6
f 510/6/6 506/6/6 511/6/6
f 509/6/6 510/6/6 512/6/6
f 512/6/6 510/6/6 513/6/6
